<?xml version="1.0" encoding="UTF-8"?>
<mxfile>
  <diagram name="System Architecture">
    <mxGraphModel>
      <root>
        <mxCell id="0" />
        <mxCell id="1" parent="0" />
        <mxCell id="2" value="User" style="ellipse" vertex="1" parent="1">
          <mxGeometry x="100" y="50" width="80" height="50" as="geometry" />
        </mxCell>
        <mxCell id="3" value="ChatGPT Model" style="rounded=1" vertex="1" parent="1">
          <mxGeometry x="250" y="50" width="120" height="50" as="geometry" />
        </mxCell>
        <mxCell id="4" value="SQLite Database" style="rounded=1" vertex="1" parent="1">
          <mxGeometry x="400" y="50" width="120" height="50" as="geometry" />
        </mxCell>
        <mxCell id="5" value="RL Engine" style="rounded=1" vertex="1" parent="1">
          <mxGeometry x="250" y="150" width="120" height="50" as="geometry" />
        </mxCell>
        <mxCell id="6" edge="1" parent="1" source="2" target="3" />
        <mxCell id="7" edge="1" parent="1" source="3" target="4" />
        <mxCell id="8" edge="1" parent="1" source="4" target="5" />
        <mxCell id="9" edge="1" parent="1" source="5" target="3" />
      </root>
    </mxGraphModel>
  </diagram>
</mxfile>